<svg width="32" height="32" viewBox="0 0 32 32" fill="none" xmlns="http://www.w3.org/2000/svg">
<rect width="32" height="32" rx="8" fill="url(#paint0_linear_1121_11)"/>
<path d="M11.9844 10.1172C11.8333 10.1172 11.7031 10.0625 11.5938 9.95312C11.4844 9.84375 11.4297 9.71094 11.4297 9.55469C11.4297 9.39844 11.4844 9.26562 11.5938 9.15625C11.7031 9.04688 11.8333 8.99219 11.9844 8.99219C12.1406 8.99219 12.2734 9.04688 12.3828 9.15625C12.4922 9.26562 12.5469 9.39844 12.5469 9.55469C12.5469 9.71094 12.4922 9.84375 12.3828 9.95312C12.2734 10.0625 12.1406 10.1172 11.9844 10.1172ZM14.6562 10.1172C14.5052 10.1172 14.375 10.0625 14.2656 9.95312C14.1562 9.84375 14.1016 9.71094 14.1016 9.55469C14.1016 9.39844 14.1562 9.26562 14.2656 9.15625C14.375 9.04688 14.5052 8.99219 14.6562 8.99219C14.8125 8.99219 14.9453 9.04688 15.0547 9.15625C15.1641 9.26562 15.2188 9.39844 15.2188 9.55469C15.2188 9.71094 15.1641 9.84375 15.0547 9.95312C14.9453 10.0625 14.8125 10.1172 14.6562 10.1172ZM17.3281 10.1172C17.1771 10.1172 17.0469 10.0625 16.9375 9.95312C16.8281 9.84375 16.7734 9.71094 16.7734 9.55469C16.7734 9.39844 16.8281 9.26562 16.9375 9.15625C17.0469 9.04688 17.1771 8.99219 17.3281 8.99219C17.4844 8.99219 17.6172 9.04688 17.7266 9.15625C17.8359 9.26562 17.8906 9.39844 17.8906 9.55469C17.8906 9.71094 17.8359 9.84375 17.7266 9.95312C17.6172 10.0625 17.4844 10.1172 17.3281 10.1172ZM20.0078 10.1172C19.8516 10.1172 19.7188 10.0625 19.6094 9.95312C19.5 9.84375 19.4453 9.71094 19.4453 9.55469C19.4453 9.39844 19.5 9.26562 19.6094 9.15625C19.7188 9.04688 19.8516 8.99219 20.0078 8.99219C20.1641 8.99219 20.2969 9.04688 20.4062 9.15625C20.5156 9.26562 20.5703 9.39844 20.5703 9.55469C20.5703 9.71094 20.5156 9.84375 20.4062 9.95312C20.2969 10.0625 20.1641 10.1172 20.0078 10.1172ZM9.3125 12.8359C9.16146 12.8359 9.03125 12.7812 8.92188 12.6719C8.8125 12.5625 8.75781 12.4323 8.75781 12.2812C8.75781 12.125 8.8125 11.9922 8.92188 11.8828C9.03125 11.7734 9.16146 11.7188 9.3125 11.7188C9.46875 11.7188 9.60156 11.7734 9.71094 11.8828C9.82031 11.9922 9.875 12.125 9.875 12.2812C9.875 12.4323 9.82031 12.5625 9.71094 12.6719C9.60156 12.7812 9.46875 12.8359 9.3125 12.8359ZM11.9844 12.9766C11.7917 12.9766 11.625 12.9115 11.4844 12.7812C11.349 12.6458 11.2812 12.4792 11.2812 12.2812C11.2812 12.0833 11.349 11.9167 11.4844 11.7812C11.625 11.6458 11.7917 11.5781 11.9844 11.5781C12.1823 11.5781 12.349 11.6458 12.4844 11.7812C12.6198 11.9167 12.6875 12.0833 12.6875 12.2812C12.6875 12.4792 12.6198 12.6458 12.4844 12.7812C12.349 12.9115 12.1823 12.9766 11.9844 12.9766ZM14.6562 13.1797C14.4115 13.1797 14.2005 13.0911 14.0234 12.9141C13.8464 12.737 13.7578 12.526 13.7578 12.2812C13.7578 12.0365 13.8464 11.8255 14.0234 11.6484C14.2005 11.4661 14.4115 11.375 14.6562 11.375C14.9062 11.375 15.1198 11.4661 15.2969 11.6484C15.474 11.8255 15.5625 12.0365 15.5625 12.2812C15.5625 12.526 15.474 12.737 15.2969 12.9141C15.1198 13.0911 14.9062 13.1797 14.6562 13.1797ZM17.3281 13.1797C17.0833 13.1797 16.8724 13.0911 16.6953 12.9141C16.5182 12.737 16.4297 12.526 16.4297 12.2812C16.4297 12.0365 16.5182 11.8255 16.6953 11.6484C16.8724 11.4661 17.0833 11.375 17.3281 11.375C17.5781 11.375 17.7917 11.4661 17.9688 11.6484C18.1458 11.8255 18.2344 12.0365 18.2344 12.2812C18.2344 12.526 18.1458 12.737 17.9688 12.9141C17.7917 13.0911 17.5781 13.1797 17.3281 13.1797ZM20.0078 12.9766C19.8151 12.9766 19.6484 12.9115 19.5078 12.7812C19.3724 12.6458 19.3047 12.4792 19.3047 12.2812C19.3047 12.0833 19.3724 11.9167 19.5078 11.7812C19.6484 11.6458 19.8151 11.5781 20.0078 11.5781C20.2057 11.5781 20.3724 11.6458 20.5078 11.7812C20.6484 11.9167 20.7188 12.0833 20.7188 12.2812C20.7188 12.4792 20.6484 12.6458 20.5078 12.7812C20.3724 12.9115 20.2057 12.9766 20.0078 12.9766ZM22.6797 12.8359C22.5234 12.8359 22.3906 12.7812 22.2812 12.6719C22.1719 12.5625 22.1172 12.4323 22.1172 12.2812C22.1172 12.125 22.1719 11.9922 22.2812 11.8828C22.3906 11.7734 22.5234 11.7188 22.6797 11.7188C22.8307 11.7188 22.9609 11.7734 23.0703 11.8828C23.1797 11.9922 23.2344 12.125 23.2344 12.2812C23.2344 12.4323 23.1797 12.5625 23.0703 12.6719C22.9609 12.7812 22.8307 12.8359 22.6797 12.8359ZM9.3125 15.5547C9.16146 15.5547 9.03125 15.5026 8.92188 15.3984C8.8125 15.2891 8.75781 15.1562 8.75781 15C8.75781 14.8438 8.8125 14.7109 8.92188 14.6016C9.03125 14.4922 9.16146 14.4375 9.3125 14.4375C9.46875 14.4375 9.60156 14.4922 9.71094 14.6016C9.82031 14.7109 9.875 14.8438 9.875 15C9.875 15.1562 9.82031 15.2891 9.71094 15.3984C9.60156 15.5026 9.46875 15.5547 9.3125 15.5547ZM11.9844 15.8984C11.7396 15.8984 11.5286 15.8099 11.3516 15.6328C11.1745 15.4557 11.0859 15.2422 11.0859 14.9922C11.0859 14.7474 11.1745 14.5365 11.3516 14.3594C11.5286 14.1823 11.7396 14.0938 11.9844 14.0938C12.2292 14.0938 12.4401 14.1823 12.6172 14.3594C12.7995 14.5365 12.8906 14.7474 12.8906 14.9922C12.8906 15.2422 12.7995 15.4557 12.6172 15.6328C12.4401 15.8099 12.2292 15.8984 11.9844 15.8984ZM20.0078 15.8984C19.763 15.8984 19.5521 15.8099 19.375 15.6328C19.1979 15.4557 19.1094 15.2422 19.1094 14.9922C19.1094 14.7474 19.1979 14.5365 19.375 14.3594C19.5521 14.1823 19.763 14.0938 20.0078 14.0938C20.2578 14.0938 20.4714 14.1823 20.6484 14.3594C20.8255 14.5365 20.9141 14.7474 20.9141 14.9922C20.9141 15.2422 20.8255 15.4557 20.6484 15.6328C20.4714 15.8099 20.2578 15.8984 20.0078 15.8984ZM22.6797 15.5547C22.5234 15.5547 22.3906 15.5026 22.2812 15.3984C22.1719 15.2891 22.1172 15.1562 22.1172 15C22.1172 14.8438 22.1719 14.7109 22.2812 14.6016C22.3906 14.4922 22.5234 14.4375 22.6797 14.4375C22.8307 14.4375 22.9609 14.4922 23.0703 14.6016C23.1797 14.7109 23.2344 14.8438 23.2344 15C23.2344 15.1562 23.1797 15.2891 23.0703 15.3984C22.9609 15.5026 22.8307 15.5547 22.6797 15.5547ZM9.3125 18.2812C9.16146 18.2812 9.03125 18.2266 8.92188 18.1172C8.8125 18.0078 8.75781 17.875 8.75781 17.7188C8.75781 17.5625 8.8125 17.4297 8.92188 17.3203C9.03125 17.2109 9.16146 17.1562 9.3125 17.1562C9.46875 17.1562 9.60156 17.2109 9.71094 17.3203C9.82031 17.4297 9.875 17.5625 9.875 17.7188C9.875 17.875 9.82031 18.0078 9.71094 18.1172C9.60156 18.2266 9.46875 18.2812 9.3125 18.2812ZM11.9844 18.625C11.7396 18.625 11.5286 18.5365 11.3516 18.3594C11.1745 18.1823 11.0859 17.9714 11.0859 17.7266C11.0859 17.4766 11.1745 17.263 11.3516 17.0859C11.5286 16.9089 11.7396 16.8203 11.9844 16.8203C12.2292 16.8203 12.4401 16.9089 12.6172 17.0859C12.7995 17.263 12.8906 17.4766 12.8906 17.7266C12.8906 17.9714 12.7995 18.1823 12.6172 18.3594C12.4401 18.5365 12.2292 18.625 11.9844 18.625ZM20.0078 18.625C19.763 18.625 19.5521 18.5365 19.375 18.3594C19.1979 18.1823 19.1094 17.9714 19.1094 17.7266C19.1094 17.4766 19.1979 17.263 19.375 17.0859C19.5521 16.9089 19.763 16.8203 20.0078 16.8203C20.2578 16.8203 20.4714 16.9089 20.6484 17.0859C20.8255 17.263 20.9141 17.4766 20.9141 17.7266C20.9141 17.9714 20.8255 18.1823 20.6484 18.3594C20.4714 18.5365 20.2578 18.625 20.0078 18.625ZM22.6797 18.2812C22.5234 18.2812 22.3906 18.2266 22.2812 18.1172C22.1719 18.0078 22.1172 17.875 22.1172 17.7188C22.1172 17.5625 22.1719 17.4297 22.2812 17.3203C22.3906 17.2109 22.5234 17.1562 22.6797 17.1562C22.8307 17.1562 22.9609 17.2109 23.0703 17.3203C23.1797 17.4297 23.2344 17.5625 23.2344 17.7188C23.2344 17.875 23.1797 18.0078 23.0703 18.1172C22.9609 18.2266 22.8307 18.2812 22.6797 18.2812ZM9.3125 21.0078C9.16146 21.0078 9.03125 20.9531 8.92188 20.8438C8.8125 20.7344 8.75781 20.6016 8.75781 20.4453C8.75781 20.2943 8.8125 20.1641 8.92188 20.0547C9.03125 19.9453 9.16146 19.8906 9.3125 19.8906C9.46875 19.8906 9.60156 19.9453 9.71094 20.0547C9.82031 20.1641 9.875 20.2943 9.875 20.4453C9.875 20.6016 9.82031 20.7344 9.71094 20.8438C9.60156 20.9531 9.46875 21.0078 9.3125 21.0078ZM11.9844 21.1484C11.7917 21.1484 11.625 21.0807 11.4844 20.9453C11.349 20.8099 11.2812 20.6432 11.2812 20.4453C11.2812 20.2474 11.349 20.0833 11.4844 19.9531C11.625 19.8177 11.7917 19.75 11.9844 19.75C12.1823 19.75 12.349 19.8177 12.4844 19.9531C12.6198 20.0833 12.6875 20.2474 12.6875 20.4453C12.6875 20.6432 12.6198 20.8099 12.4844 20.9453C12.349 21.0807 12.1823 21.1484 11.9844 21.1484ZM14.6562 21.3516C14.4115 21.3516 14.2005 21.263 14.0234 21.0859C13.8464 20.9036 13.7578 20.6901 13.7578 20.4453C13.7578 20.2005 13.8464 19.9896 14.0234 19.8125C14.2005 19.6354 14.4115 19.5469 14.6562 19.5469C14.9062 19.5469 15.1198 19.6354 15.2969 19.8125C15.474 19.9896 15.5625 20.2005 15.5625 20.4453C15.5625 20.6901 15.474 20.9036 15.2969 21.0859C15.1198 21.263 14.9062 21.3516 14.6562 21.3516ZM17.3281 21.3516C17.0833 21.3516 16.8724 21.263 16.6953 21.0859C16.5182 20.9036 16.4297 20.6901 16.4297 20.4453C16.4297 20.2005 16.5182 19.9896 16.6953 19.8125C16.8724 19.6354 17.0833 19.5469 17.3281 19.5469C17.5781 19.5469 17.7917 19.6354 17.9688 19.8125C18.1458 19.9896 18.2344 20.2005 18.2344 20.4453C18.2344 20.6901 18.1458 20.9036 17.9688 21.0859C17.7917 21.263 17.5781 21.3516 17.3281 21.3516ZM20.0078 21.1484C19.8151 21.1484 19.6484 21.0807 19.5078 20.9453C19.3724 20.8099 19.3047 20.6432 19.3047 20.4453C19.3047 20.2474 19.3724 20.0833 19.5078 19.9531C19.6484 19.8177 19.8151 19.75 20.0078 19.75C20.2057 19.75 20.3724 19.8177 20.5078 19.9531C20.6484 20.0833 20.7188 20.2474 20.7188 20.4453C20.7188 20.6432 20.6484 20.8099 20.5078 20.9453C20.3724 21.0807 20.2057 21.1484 20.0078 21.1484ZM22.6797 21.0078C22.5234 21.0078 22.3906 20.9531 22.2812 20.8438C22.1719 20.7344 22.1172 20.6016 22.1172 20.4453C22.1172 20.2943 22.1719 20.1641 22.2812 20.0547C22.3906 19.9453 22.5234 19.8906 22.6797 19.8906C22.8307 19.8906 22.9609 19.9453 23.0703 20.0547C23.1797 20.1641 23.2344 20.2943 23.2344 20.4453C23.2344 20.6016 23.1797 20.7344 23.0703 20.8438C22.9609 20.9531 22.8307 21.0078 22.6797 21.0078ZM11.9844 23.7344C11.8333 23.7344 11.7031 23.6797 11.5938 23.5703C11.4844 23.4609 11.4297 23.3281 11.4297 23.1719C11.4297 23.0208 11.4844 22.8906 11.5938 22.7812C11.7031 22.6719 11.8333 22.6172 11.9844 22.6172C12.1406 22.6172 12.2734 22.6719 12.3828 22.7812C12.4922 22.8906 12.5469 23.0208 12.5469 23.1719C12.5469 23.3281 12.4922 23.4609 12.3828 23.5703C12.2734 23.6797 12.1406 23.7344 11.9844 23.7344ZM14.6562 23.7344C14.5052 23.7344 14.375 23.6797 14.2656 23.5703C14.1562 23.4609 14.1016 23.3281 14.1016 23.1719C14.1016 23.0208 14.1562 22.8906 14.2656 22.7812C14.375 22.6719 14.5052 22.6172 14.6562 22.6172C14.8125 22.6172 14.9453 22.6719 15.0547 22.7812C15.1641 22.8906 15.2188 23.0208 15.2188 23.1719C15.2188 23.3281 15.1641 23.4609 15.0547 23.5703C14.9453 23.6797 14.8125 23.7344 14.6562 23.7344ZM17.3281 23.7344C17.1771 23.7344 17.0469 23.6797 16.9375 23.5703C16.8281 23.4609 16.7734 23.3281 16.7734 23.1719C16.7734 23.0208 16.8281 22.8906 16.9375 22.7812C17.0469 22.6719 17.1771 22.6172 17.3281 22.6172C17.4844 22.6172 17.6172 22.6719 17.7266 22.7812C17.8359 22.8906 17.8906 23.0208 17.8906 23.1719C17.8906 23.3281 17.8359 23.4609 17.7266 23.5703C17.6172 23.6797 17.4844 23.7344 17.3281 23.7344ZM20.0078 23.7344C19.8516 23.7344 19.7188 23.6797 19.6094 23.5703C19.5 23.4609 19.4453 23.3281 19.4453 23.1719C19.4453 23.0208 19.5 22.8906 19.6094 22.7812C19.7188 22.6719 19.8516 22.6172 20.0078 22.6172C20.1641 22.6172 20.2969 22.6719 20.4062 22.7812C20.5156 22.8906 20.5703 23.0208 20.5703 23.1719C20.5703 23.3281 20.5156 23.4609 20.4062 23.5703C20.2969 23.6797 20.1641 23.7344 20.0078 23.7344ZM14.6641 15.8906C14.4193 15.8906 14.2083 15.8021 14.0312 15.625C13.8542 15.4479 13.7656 15.237 13.7656 14.9922C13.7656 14.7474 13.8542 14.5365 14.0312 14.3594C14.2083 14.1823 14.4193 14.0938 14.6641 14.0938C14.9089 14.0938 15.1198 14.1823 15.2969 14.3594C15.474 14.5365 15.5625 14.7474 15.5625 14.9922C15.5625 15.237 15.474 15.4479 15.2969 15.625C15.1198 15.8021 14.9089 15.8906 14.6641 15.8906ZM17.3281 15.8906C17.0833 15.8906 16.8724 15.8021 16.6953 15.625C16.5182 15.4479 16.4297 15.237 16.4297 14.9922C16.4297 14.7474 16.5182 14.5365 16.6953 14.3594C16.8724 14.1823 17.0833 14.0938 17.3281 14.0938C17.5781 14.0938 17.7917 14.1823 17.9688 14.3594C18.1458 14.5365 18.2344 14.7474 18.2344 14.9922C18.2344 15.237 18.1458 15.4479 17.9688 15.625C17.7917 15.8021 17.5781 15.8906 17.3281 15.8906ZM14.6641 18.6172C14.4193 18.6172 14.2083 18.5286 14.0312 18.3516C13.8542 18.1745 13.7656 17.9635 13.7656 17.7188C13.7656 17.4688 13.8542 17.2552 14.0312 17.0781C14.2083 16.901 14.4193 16.8125 14.6641 16.8125C14.9089 16.8125 15.1198 16.901 15.2969 17.0781C15.474 17.2552 15.5625 17.4688 15.5625 17.7188C15.5625 17.9635 15.474 18.1745 15.2969 18.3516C15.1198 18.5286 14.9089 18.6172 14.6641 18.6172ZM17.3281 18.6172C17.0833 18.6172 16.8724 18.5286 16.6953 18.3516C16.5182 18.1745 16.4297 17.9635 16.4297 17.7188C16.4297 17.4688 16.5182 17.2552 16.6953 17.0781C16.8724 16.901 17.0833 16.8125 17.3281 16.8125C17.5781 16.8125 17.7917 16.901 17.9688 17.0781C18.1458 17.2552 18.2344 17.4688 18.2344 17.7188C18.2344 17.9635 18.1458 18.1745 17.9688 18.3516C17.7917 18.5286 17.5781 18.6172 17.3281 18.6172Z" fill="white"/>
<defs>
<linearGradient id="paint0_linear_1121_11" x1="16" y1="0" x2="16" y2="32" gradientUnits="userSpaceOnUse">
<stop offset="0.0769191" stop-color="#E56E3D"/>
<stop offset="0.528846" stop-color="#0B0605"/>
<stop offset="1" stop-color="#F2F0E6"/>
</linearGradient>
</defs>
</svg>
